#!OML:ASF H:\MichaelJackson\Top Level 1\Subject 1\Session 1\male.ASF
:FULLY-SPECIFIED
:DEGREES
552
root 3.94648 15.7472 -6.34404 4.05371 35.8094 -11.913
lowerback 4.16987 -0.0617221 3.71386
upperback 0.0990791 0.154583 2.0399
thorax -2.23366 0.0528202 0.00544114
lowerneck -8.86607 -6.22868 4.27491
upperneck 6.5514 -9.04129 2.18052
head 3.60291 -4.25692 -0.544542
rclavicle 2.01766e-014 3.4191e-014
rhumerus -13.5456 3.22345 -37.6202
rradius 121.877
rwrist -36.3479
rhand 62.5549 -26.4408
rfingers 7.12502
rthumb 74.9546 375.283
lclavicle 2.01766e-014 3.4191e-014
lhumerus -47.6053 -30.3896 90.8016
lradius 55.8689
lwrist 19.8478
lhand -12.5147 4.42554
lfingers 7.12502
lthumb 13.561 33.9639
rfemur -9.42017 6.62315 3.16277
rtibia 38.5588
rfoot 25.3959 -24.4036
rtoes -32.1371
lfemur -45.4502 10.9755 -3.81691
ltibia 57.5071
lfoot -22.7275 4.77341
ltoes -18.7713
553
root 4.05071 15.8148 -6.33736 3.87065 37.9956 -11.7875
lowerback 4.15957 -0.102955 3.44837
upperback 0.0778289 0.086312 2.00478
thorax -2.25173 0.0210158 0.121854
lowerneck -8.84698 -6.35513 4.12603
upperneck 6.58374 -9.19338 2.19226
head 3.6165 -4.33447 -0.524142
rclavicle -7.54388e-014 1.98785e-014
rhumerus -13.6917 -1.46851 -37.8545
rradius 121.628
rwrist -36.7212
rhand 55.1041 -24.3952
rfingers 7.12502
rthumb 72.8707 352.237
lclavicle -7.54388e-014 1.98785e-014
lhumerus -47.0414 -30.5618 90.8873
lradius 56.2049
lwrist 20.2519
lhand -12.5751 4.82809
lfingers 7.12502
lthumb 13.5028 34.3703
rfemur -10.3264 6.58108 3.43049
rtibia 42.1669
rfoot 26.1672 -20.1478
rtoes -30.4716
lfemur -45.2323 8.9194 -4.36927
ltibia 56.546
lfoot -22.578 4.46423
ltoes -17.958
554
root 4.14999 15.8801 -6.32908 3.67348 40.1072 -11.6508
lowerback 4.19909 -0.121805 3.14204
upperback 0.0742483 0.0473052 1.9603
thorax -2.27845 0.00424805 0.249839
lowerneck -8.80887 -6.48029 3.98125
upperneck 6.60051 -9.34083 2.1826
head 3.61986 -4.41144 -0.5099
rclavicle -4.06515e-014 1.11319e-014
rhumerus -13.9211 -5.84219 -38.2413
rradius 121.381
rwrist -36.4369
rhand 45.1626 -22.1534
rfingers 7.12502
rthumb 66.5106 333.404
lclavicle -4.06515e-014 1.11319e-014
lhumerus -46.4819 -30.7525 90.963
lradius 56.5497
lwrist 20.6984
lhand -12.6266 5.15076
lfingers 7.12502
lthumb 13.4531 34.6963
rfemur -11.395 6.34919 3.73211
rtibia 45.9938
rfoot 26.2939 -14.6351
rtoes -29.9518
lfemur -44.9269 7.0333 -4.91031
ltibia 55.5716
lfoot -22.4436 4.10412
ltoes -17.2319
555
root 4.24455 15.9445 -6.31817 3.45768 42.1411 -11.5086
lowerback 4.30345 -0.123351 2.8178
upperback 0.0781444 0.0319819 1.89213
thorax -2.33316 -0.000862634 0.362292
lowerneck -8.75814 -6.59775 3.86741
upperneck 6.61709 -9.47924 2.1504
head 3.61819 -4.4844 -0.50701
rclavicle -1.65985e-014 -1.27222e-014
rhumerus -14.2347 -9.75294 -38.8126
rradius 121.174
rwrist -35.5281
rhand 33.4141 -20.2965
rfingers 7.12502
rthumb 56.7474 322.909
lclavicle -1.65985e-014 -1.27222e-014
lhumerus -45.9564 -30.9625 91.0092
lradius 56.8953
lwrist 21.1383
lhand -12.6568 5.39286
lfingers 7.12502
lthumb 13.424 34.9403
rfemur -12.59 6.04073 4.08611
rtibia 49.9399
rfoot 25.5176 -8.82611
rtoes -29.8176
lfemur -44.524 5.35275 -5.44794
ltibia 54.5793
lfoot -22.3353 3.71057
ltoes -16.7035
556
root 4.33523 16.0083 -6.30398 3.21962 44.098 -11.3693
lowerback 4.45617 -0.11598 2.47746
upperback 0.0938217 0.0280554 1.81274
thorax -2.40262 -0.000115627 0.471713
lowerneck -8.7064 -6.6992 3.77368
upperneck 6.64403 -9.59681 2.09022
head 3.6177 -4.5476 -0.515559
rclavicle -4.28381e-014 -3.57812e-015
rhumerus -14.5765 -13.0909 -39.5793
rradius 121.016
rwrist -34.0502
rhand 20.5819 -19.2821
rfingers 7.12502
rthumb 45.0768 317.249
lclavicle -4.28381e-014 -3.57812e-015
lhumerus -45.4631 -31.1576 91.0298
lradius 57.2274
lwrist 21.5249
lhand -12.6597 5.56074
lfingers 7.12502
lthumb 13.4212 35.1084
rfemur -13.881 5.7051 4.50466
rtibia 53.9179
rfoot 24.0815 -3.44094
rtoes -29.6316
lfemur -44.0268 3.90059 -5.98798
ltibia 53.5719
lfoot -22.2501 3.27692
ltoes -16.3596
557
root 4.42292 16.0716 -6.28701 2.9881 45.9874 -11.2194
lowerback 4.63741 -0.102199 2.14167
upperback 0.115991 0.0315562 1.70472
thorax -2.48131 0.00418752 0.548806
lowerneck -8.66486 -6.78378 3.74102
upperneck 6.69007 -9.69719 1.9924
head 3.62079 -4.60183 -0.546324
rclavicle -7.76254e-014 1.66979e-014
rhumerus -14.9352 -15.8345 -40.5593
rradius 120.882
rwrist -32.0595
rhand 7.36654 -19.3483
rfingers 7.12502
rthumb 32.6245 313.573
lclavicle -7.76254e-014 1.66979e-014
lhumerus -44.9889 -31.3482 90.9993
lradius 57.5268
lwrist 21.8526
lhand -12.6224 5.63415
lfingers 7.12502
lthumb 13.4572 35.1794
rfemur -15.2663 5.33353 4.97013
rtibia 57.8627
rfoot 22.45 1.14721
rtoes -28.9951
lfemur -43.4635 2.67576 -6.55167
ltibia 52.5507
lfoot -22.1772 2.8034
ltoes -16.166
558
root 4.5083 16.1344 -6.26563 2.73374 47.8127 -11.0864
lowerback 4.82674 -0.0878291 1.8065
upperback 0.155025 0.0339144 1.5854
thorax -2.5472 0.00814492 0.614046
lowerneck -8.63735 -6.84901 3.73003
upperneck 6.76752 -9.77528 1.88395
head 3.63615 -4.64389 -0.584424
rclavicle 1.28514e-013 5.96354e-015
rhumerus -15.2564 -18.0138 -41.7418
rradius 120.701
rwrist -29.5915
rhand -5.62005 -20.62
rfingers 7.12502
rthumb 20.1976 310.41
lclavicle 1.28514e-013 5.96354e-015
lhumerus -44.5245 -31.5123 90.9194
lradius 57.7776
lwrist 22.1134
lhand -12.5885 5.62529
lfingers 7.12502
lthumb 13.4899 35.1684
rfemur -16.7046 4.93956 5.52557
rtibia 61.7234
rfoot 21.0153 4.91915
rtoes -28.3702
lfemur -42.824 1.68378 -7.11822
ltibia 51.5227
lfoot -22.1269 2.28313
ltoes -16.0791
559
root 4.59273 16.1967 -6.24057 2.48422 49.5899 -10.9513
lowerback 5.00881 -0.0821328 1.45795
upperback 0.204973 0.0221511 1.46729
thorax -2.59779 0.00545404 0.689048
lowerneck -8.62679 -6.889 3.71645
upperneck 6.88235 -9.8205 1.76393
head 3.66784 -4.66907 -0.626015
rclavicle -7.85199e-014 -1.59028e-015
rhumerus -15.4976 -19.6986 -43.0781
rradius 120.398
rwrist -26.6946
rhand -17.8664 -23.3824
rfingers 7.12502
rthumb 8.39926 306.805
lclavicle -7.85199e-014 -1.59028e-015
lhumerus -44.0545 -31.62 90.8107
lradius 57.9575
lwrist 22.31
lhand -12.5381 5.54815
lfingers 7.12502
lthumb 13.5384 35.088
rfemur -18.1994 4.50006 6.14413
rtibia 65.4686
rfoot 19.9887 7.78864
rtoes -27.8066
lfemur -42.1318 0.881459 -7.70129
ltibia 50.495
lfoot -22.0882 1.73688
ltoes -16.0246
560
root 4.67737 16.2575 -6.21218 2.24485 51.3337 -10.8187
lowerback 5.17551 -0.0861792 1.13144
upperback 0.255777 -0.00343539 1.33436
thorax -2.63872 -0.00439135 0.737537
lowerneck -8.62496 -6.91081 3.71122
upperneck 7.04074 -9.84454 1.64786
head 3.71673 -4.68201 -0.668383
rclavicle 1.28216e-014 2.78299e-015
rhumerus -15.6897 -21.0072 -44.5275
rradius 119.934
rwrist -23.4807
rhand -28.9089 -28.0936
rfingers 7.12502
rthumb -2.26368 301.939
lclavicle 1.28216e-014 2.78299e-015
lhumerus -43.5835 -31.707 90.6665
lradius 58.0604
lwrist 22.4778
lhand -12.5733 5.46524
lfingers 7.12502
lthumb 13.5045 35.0074
rfemur -19.7481 3.97607 6.8214
rtibia 69.0765
rfoot 19.4097 9.81813
rtoes -27.4855
lfemur -41.4078 0.224077 -8.29133
ltibia 49.479
lfoot -22.0477 1.18382
ltoes -15.9484
